<svg xmlns="http://www.w3.org/2000/svg" width="256" height="256" viewBox="0 0 256 256" role="img" aria-label="Low Quality Interactive logo">
  <defs>
    <linearGradient id="bg" x1="0" y1="0" x2="1" y2="1">
      <stop offset="0" stop-color="#3a1717"/>
      <stop offset="1" stop-color="#1d1010"/>
    </linearGradient>
    <linearGradient id="stroke" x1="0" y1="0" x2="1" y2="1">
      <stop offset="0" stop-color="#ffb3b3"/>
      <stop offset="1" stop-color="#d94b4b"/>
    </linearGradient>
  </defs>
  <rect x="10" y="10" width="236" height="236" rx="54" fill="url(#bg)" stroke="#754040" stroke-width="10"/>
  <text x="128" y="114" text-anchor="middle" font-family="Inter, Arial, sans-serif" font-size="64" font-weight="800" fill="url(#stroke)">LQ</text>
  <text x="128" y="178" text-anchor="middle" font-family="Inter, Arial, sans-serif" font-size="54" font-weight="800" fill="url(#stroke)">INT</text>
<?xml version="1.0" encoding="UTF-8"?>
<svg version="1.1" xmlns="http://www.w3.org/2000/svg" width="512" height="512">
<path d="M0 0 C19.45659815 16.19831616 31.10787199 37.63438415 36.93383789 62.02685547 C37.18157959 63.04465088 37.18157959 63.04465088 37.43432617 64.08300781 C45.24492243 97.98277257 40.96935226 138.96221244 22.54980469 168.73486328 C14.30025619 181.40523072 3.67105758 192.80073442 -9.06616211 201.02685547 C-9.72616211 201.02685547 -10.38616211 201.02685547 -11.06616211 201.02685547 C-10.62788086 201.89181641 -10.18959961 202.75677734 -9.73803711 203.64794922 C-4.76327585 213.51181537 0.04422811 223.45175616 4.80786133 233.41918945 C5.29931641 234.44729736 5.79077148 235.47540527 6.29711914 236.53466797 C6.75666992 237.50017578 7.2162207 238.46568359 7.68969727 239.46044922 C8.68180202 241.50695729 9.73022569 243.5261348 10.79711914 245.53466797 C12.39579522 249.03966914 11.91943819 251.36605437 10.93383789 255.02685547 C7.74593601 257.15212339 6.92483398 257.28122895 3.26635742 257.30151367 C2.32172638 257.31104568 1.37709534 257.3205777 0.40383911 257.33039856 C-0.61493317 257.32948715 -1.63370544 257.32857574 -2.68334961 257.32763672 C-3.73265656 257.33192184 -4.7819635 257.33620697 -5.86306763 257.34062195 C-8.083916 257.34636764 -10.30478319 257.34686376 -12.52563477 257.3425293 C-15.92098207 257.33937422 -19.31545414 257.36280922 -22.71069336 257.38818359 C-24.86824434 257.39045706 -27.02579767 257.39115986 -29.18334961 257.39013672 C-30.19807343 257.39934647 -31.21279724 257.40855621 -32.25827026 257.41804504 C-41.55384289 257.35715744 -41.55384289 257.35715744 -45.06616211 254.02685547 C-46.79564984 251.41776811 -48.14663709 248.68160503 -49.49194336 245.85888672 C-49.88439743 245.06407394 -50.2768515 244.26926117 -50.68119812 243.45036316 C-51.92702334 240.91964708 -53.15298816 238.37988262 -54.37866211 235.83935547 C-55.22176944 234.11801808 -56.06615642 232.39730684 -56.91186523 230.67724609 C-58.97819611 226.46756069 -61.02677282 222.24965425 -63.06616211 218.02685547 C-63.61605301 218.00539963 -64.16594391 217.98394379 -64.73249817 217.96183777 C-85.0947435 217.13784413 -85.0947435 217.13784413 -93.75366211 215.33935547 C-95.04626953 215.07989136 -95.04626953 215.07989136 -96.36499023 214.81518555 C-122.23689641 209.3314663 -146.54319807 195.8242597 -161.49975586 173.49560547 C-168.85625495 161.96272069 -174.31788223 149.66333651 -177.87866211 136.46435547 C-178.17111816 135.38686035 -178.17111816 135.38686035 -178.46948242 134.28759766 C-181.62255455 121.74760181 -182.45095397 109.09777103 -182.37866211 96.21435547 C-182.37650696 95.51652954 -182.37435181 94.81870361 -182.37213135 94.09973145 C-182.31812677 83.16333567 -181.75526346 72.66292665 -179.06616211 62.02685547 C-178.87812012 61.2452002 -178.69007813 60.46354492 -178.49633789 59.65820312 C-173.90284654 41.04670634 -165.61808789 24.54197762 -153.06616211 10.02685547 C-152.13610352 8.94597656 -152.13610352 8.94597656 -151.18725586 7.84326172 C-113.75903378 -32.33346911 -41.71716739 -33.67826504 0 0 Z M-100.06616211 35.02685547 C-100.89116211 35.43677734 -101.71616211 35.84669922 -102.56616211 36.26904297 C-116.12124569 43.58382892 -121.97326483 56.71293532 -126.26928711 70.85107422 C-131.80529253 92.91368407 -129.91944009 121.613029 -118.65600586 141.51904297 C-111.65296975 152.61185216 -102.27565489 159.91686176 -89.58569336 163.48388672 C-72.22014525 167.22622964 -53.53186731 166.09891022 -38.03491211 157.01513672 C-25.27736913 148.47094017 -17.6529666 133.97374547 -14.68725586 119.02294922 C-11.17313995 95.69021652 -12.32589434 67.79381604 -26.42944336 48.11279297 C-34.30795921 38.07191597 -45.01547058 30.96961536 -57.89038086 29.23388672 C-72.53777223 28.27901373 -86.7754709 28.05847223 -100.06616211 35.02685547 Z " fill="#B34242" transform="translate(409.066162109375,153.97314453125)"/>
<path d="M0 0 C0.84437622 -0.01253311 1.68875244 -0.02506622 2.55871582 -0.03797913 C3.45779663 -0.02472092 4.35687744 -0.01146271 5.28320312 0.00219727 C6.21869995 -0.00021469 7.15419678 -0.00262665 8.11804199 -0.00511169 C10.09159595 -0.00413426 12.06517767 0.00923462 14.03857422 0.03417969 C17.054661 0.06849212 20.06781724 0.05483256 23.08398438 0.03540039 C25.00456973 0.0422991 26.92514754 0.05197171 28.84570312 0.06469727 C30.19432434 0.05725746 30.19432434 0.05725746 31.57019043 0.04966736 C35.70920657 0.12729489 38.00490626 0.29152605 41.609375 2.47900391 C45.04829453 6.26447789 44.68822729 9.71858805 44.68470764 14.63554382 C44.68556207 15.35272876 44.68641649 16.0699137 44.68729681 16.80883151 C44.68894718 19.21795716 44.68343745 21.62701356 44.67797852 24.03613281 C44.67769652 25.76069131 44.67785461 27.48524992 44.67842102 29.20980835 C44.67870852 33.8975082 44.67281939 38.58518258 44.66584706 43.2728765 C44.6596057 48.16961269 44.6590091 53.06634943 44.65782166 57.96308899 C44.65471066 67.23843656 44.64650037 76.51377238 44.63647217 85.78911477 C44.62530386 96.34762757 44.61979877 106.90614091 44.61477673 117.46465814 C44.60431758 139.18681317 44.5867226 160.9089576 44.56445312 182.63110352 C46.46792511 182.61777985 46.46792511 182.61777985 48.40985107 182.60418701 C60.35806522 182.52316494 72.30622377 182.46316866 84.25465012 182.42385483 C90.39774763 182.40296383 96.5406237 182.37461806 102.68359375 182.3293457 C108.60987785 182.28594268 114.53594871 182.26197781 120.46237946 182.25159454 C122.72547005 182.24419326 124.98854874 182.22974062 127.25154877 182.20818329 C130.41698089 182.17922367 133.58152743 182.17514448 136.74707031 182.17700195 C138.15616165 182.1554303 138.15616165 182.1554303 139.59371948 182.13342285 C145.88944065 182.17350195 145.88944065 182.17350195 149.14668274 184.38163757 C150.71815408 186.87496886 151.0655262 188.15397121 151.06616211 191.07666016 C151.07554306 191.94758804 151.08492401 192.81851593 151.09458923 193.71583557 C151.07773827 195.11442055 151.07773827 195.11442055 151.06054688 196.54125977 C151.06200211 197.50511093 151.06345734 198.4689621 151.06495667 199.46202087 C151.06329841 201.49700955 151.05174537 203.53201086 151.03100586 205.56689453 C151.00202524 208.68584269 151.01040365 211.80309399 151.0234375 214.92211914 C151.01720084 216.89934096 151.00881047 218.87655741 150.99804688 220.85375977 C151.00098251 221.78817398 151.00391815 222.7225882 151.00694275 223.68531799 C150.99425858 224.55309372 150.9815744 225.42086945 150.96850586 226.31494141 C150.96310287 227.07787003 150.95769989 227.84079865 150.95213318 228.62684631 C150.45212033 231.21184997 149.65705008 232.06265088 147.56445312 233.63110352 C144.23825069 234.72670264 141.11123797 234.76173182 137.6257782 234.77154541 C136.41034332 234.77725555 135.19490845 234.7829657 133.94264221 234.78884888 C132.59872447 234.79009414 131.25480661 234.79121925 129.91088867 234.79223633 C128.49310172 234.79686655 127.07531601 234.80189149 125.65753174 234.80728149 C121.80824827 234.82038751 117.95898223 234.8268469 114.10967994 234.83129215 C111.70349186 234.83422569 109.29730851 234.83833102 106.89112282 234.84279633 C99.35888748 234.85646631 91.82666301 234.8661355 84.29441613 234.86999822 C75.60656988 234.87447836 66.91888102 234.89202624 58.23108262 234.92099881 C51.51077506 234.94263036 44.79051174 234.95270328 38.07016975 234.95403934 C34.05862201 234.95508628 30.0472223 234.96097047 26.03571129 234.97885895 C22.26080987 234.99536528 18.48616738 234.99748284 14.71124268 234.98871994 C13.32898578 234.98795094 11.94671481 234.99227422 10.56449318 235.00217819 C-2.85437277 235.09265771 -2.85437277 235.09265771 -8.43554688 231.63110352 C-9.74734171 227.695719 -9.58705994 223.94090408 -9.58944702 219.83804321 C-9.59382928 218.92837559 -9.59821153 218.01870797 -9.60272658 217.08147466 C-9.61612544 214.02070435 -9.62229583 210.95996283 -9.62841797 207.89916992 C-9.63631791 205.70982228 -9.64458679 203.52047594 -9.65319824 201.33113098 C-9.67942495 194.13165533 -9.69472384 186.93217382 -9.70898438 179.73266602 C-9.71434328 177.25663626 -9.71972078 174.78060655 -9.72511673 172.30457687 C-9.74674399 162.00872362 -9.76548266 151.71287195 -9.77673912 141.41700172 C-9.77967847 138.74585593 -9.78263048 136.07471016 -9.78564453 133.40356445 C-9.78639058 132.73966542 -9.78713663 132.07576638 -9.78790529 131.39174919 C-9.80056495 120.63170372 -9.83379755 109.87182327 -9.87544636 99.11185499 C-9.91785214 88.06586176 -9.94102464 77.01995744 -9.94665968 65.97388399 C-9.95031956 59.77138639 -9.96240906 53.56916872 -9.99476242 47.36674881 C-10.02475129 41.53413039 -10.03118756 35.70196266 -10.01937866 29.86928368 C-10.01915718 27.72666307 -10.0275238 25.58402209 -10.0450325 23.44147301 C-10.06761185 20.5198113 -10.05948127 17.59979949 -10.04354858 14.6781311 C-10.05743067 13.8270602 -10.07131276 12.9759893 -10.08561552 12.09912837 C-10.02708417 7.75353161 -9.8307271 6.12928627 -7.03505135 2.60492611 C-4.35220163 0.56781887 -3.29557079 0.0042965 0 0 Z " fill="#B24242" transform="translate(73.435546875,133.368896484375)"/>
<path d="M0 0 C19.45659815 16.19831616 31.10787199 37.63438415 36.93383789 62.02685547 C37.18157959 63.04465088 37.18157959 63.04465088 37.43432617 64.08300781 C45.24492243 97.98277257 40.96935226 138.96221244 22.54980469 168.73486328 C14.30025619 181.40523072 3.67105758 192.80073442 -9.06616211 201.02685547 C-9.72616211 201.02685547 -10.38616211 201.02685547 -11.06616211 201.02685547 C-10.62788086 201.89181641 -10.18959961 202.75677734 -9.73803711 203.64794922 C-4.76327585 213.51181537 0.04422811 223.45175616 4.80786133 233.41918945 C5.29931641 234.44729736 5.79077148 235.47540527 6.29711914 236.53466797 C6.75666992 237.50017578 7.2162207 238.46568359 7.68969727 239.46044922 C8.68180202 241.50695729 9.73022569 243.5261348 10.79711914 245.53466797 C12.39579522 249.03966914 11.91943819 251.36605437 10.93383789 255.02685547 C7.74593601 257.15212339 6.92483398 257.28122895 3.26635742 257.30151367 C2.32172638 257.31104568 1.37709534 257.3205777 0.40383911 257.33039856 C-0.61493317 257.32948715 -1.63370544 257.32857574 -2.68334961 257.32763672 C-3.73265656 257.33192184 -4.7819635 257.33620697 -5.86306763 257.34062195 C-8.083916 257.34636764 -10.30478319 257.34686376 -12.52563477 257.3425293 C-15.92098207 257.33937422 -19.31545414 257.36280922 -22.71069336 257.38818359 C-24.86824434 257.39045706 -27.02579767 257.39115986 -29.18334961 257.39013672 C-30.19807343 257.39934647 -31.21279724 257.40855621 -32.25827026 257.41804504 C-41.55384289 257.35715744 -41.55384289 257.35715744 -45.06616211 254.02685547 C-46.79564984 251.41776811 -48.14663709 248.68160503 -49.49194336 245.85888672 C-49.88439743 245.06407394 -50.2768515 244.26926117 -50.68119812 243.45036316 C-51.92702334 240.91964708 -53.15298816 238.37988262 -54.37866211 235.83935547 C-55.22176944 234.11801808 -56.06615642 232.39730684 -56.91186523 230.67724609 C-58.97819611 226.46756069 -61.02677282 222.24965425 -63.06616211 218.02685547 C-63.61605301 218.00539963 -64.16594391 217.98394379 -64.73249817 217.96183777 C-85.0947435 217.13784413 -85.0947435 217.13784413 -93.75366211 215.33935547 C-95.04626953 215.07989136 -95.04626953 215.07989136 -96.36499023 214.81518555 C-122.23689641 209.3314663 -146.54319807 195.8242597 -161.49975586 173.49560547 C-168.85625495 161.96272069 -174.31788223 149.66333651 -177.87866211 136.46435547 C-178.17111816 135.38686035 -178.17111816 135.38686035 -178.46948242 134.28759766 C-181.62255455 121.74760181 -182.45095397 109.09777103 -182.37866211 96.21435547 C-182.37650696 95.51652954 -182.37435181 94.81870361 -182.37213135 94.09973145 C-182.31812677 83.16333567 -181.75526346 72.66292665 -179.06616211 62.02685547 C-178.87812012 61.2452002 -178.69007813 60.46354492 -178.49633789 59.65820312 C-173.90284654 41.04670634 -165.61808789 24.54197762 -153.06616211 10.02685547 C-152.13610352 8.94597656 -152.13610352 8.94597656 -151.18725586 7.84326172 C-113.75903378 -32.33346911 -41.71716739 -33.67826504 0 0 Z M-103.06616211 -16.97314453 C-104.3281543 -16.62123047 -105.59014648 -16.26931641 -106.89038086 -15.90673828 C-132.30066994 -8.35215498 -152.57735379 9.18551467 -165.15209961 32.30810547 C-182.52900552 65.43337377 -182.90459645 105.32535083 -172.12011719 140.63916016 C-167.94391233 153.7356946 -162.06877027 165.54465199 -153.06616211 176.02685547 C-152.57116211 176.66494141 -152.07616211 177.30302734 -151.56616211 177.96044922 C-137.88936933 194.95386425 -117.65641721 203.65681874 -97.06616211 209.02685547 C-95.92896729 209.32487061 -95.92896729 209.32487061 -94.76879883 209.62890625 C-87.50065383 211.31416561 -80.37110222 211.25527005 -72.94116211 211.15185547 C-71.07717773 211.13832031 -71.07717773 211.13832031 -69.17553711 211.12451172 C-66.13887206 211.10115276 -63.10262358 211.0683983 -60.06616211 211.02685547 C-59.97915039 211.68911133 -59.89213867 212.35136719 -59.80249023 213.03369141 C-58.83328407 216.97350161 -57.11817652 220.31321154 -55.28491211 223.91748047 C-54.91136597 224.66269958 -54.53781982 225.4079187 -54.1529541 226.17572021 C-53.36560177 227.74372313 -52.57538071 229.31028844 -51.7824707 230.87548828 C-50.56476806 233.27960775 -49.3557516 235.68793962 -48.14819336 238.09716797 C-47.38176626 239.62085707 -46.61485606 241.14430328 -45.84741211 242.66748047 C-45.30207825 243.75177338 -45.30207825 243.75177338 -44.74572754 244.85797119 C-43.22332864 248.15777214 -43.22332864 248.15777214 -41.06616211 251.02685547 C-39.56197472 251.11997436 -38.05344855 251.14431575 -36.54638672 251.14038086 C-35.58546616 251.14030533 -34.62454559 251.1402298 -33.63450623 251.14015198 C-32.5897261 251.13499069 -31.54494598 251.12982941 -30.46850586 251.12451172 C-29.40451065 251.12309677 -28.34051544 251.12168182 -27.24427795 251.120224 C-23.83071128 251.11460611 -20.41720911 251.10205058 -17.00366211 251.08935547 C-14.69572035 251.08434277 -12.38777756 251.07977947 -10.07983398 251.07568359 C-4.40858785 251.06463087 1.26262042 251.04787534 6.93383789 251.02685547 C6.31241422 247.74630673 5.59620402 244.95798216 4.14868164 241.94482422 C3.6058252 240.80581665 3.6058252 240.80581665 3.05200195 239.64379883 C2.66238281 238.84208252 2.27276367 238.04036621 1.87133789 237.21435547 C1.47011719 236.378479 1.06889648 235.54260254 0.65551758 234.68139648 C-3.66357934 225.71612706 -8.10467357 216.81020902 -12.64038086 207.95263672 C-13.09026367 207.06962891 -13.54014648 206.18662109 -14.00366211 205.27685547 C-14.38393555 204.53951172 -14.76420898 203.80216797 -15.15600586 203.04248047 C-16.05578974 201.04982603 -16.60957967 199.16077759 -17.06616211 197.02685547 C-16.34686523 196.76775391 -15.62756836 196.50865234 -14.88647461 196.24169922 C4.09743082 188.0644214 17.52970625 168.50246582 25.17260742 149.96386719 C27.21614872 144.76391315 28.90442491 139.49703544 30.36645508 134.10595703 C30.73950399 132.73896712 31.12778892 131.37602795 31.5324707 130.01806641 C41.122202 97.38786778 35.4487726 58.40447781 19.72290039 28.76513672 C8.12934122 8.19165194 -12.66608112 -8.83687158 -35.55053711 -15.32080078 C-36.38069336 -15.53607422 -37.21084961 -15.75134766 -38.06616211 -15.97314453 C-39.20569336 -16.32248047 -40.34522461 -16.67181641 -41.51928711 -17.03173828 C-60.48963912 -22.38761185 -84.11140576 -22.36712662 -103.06616211 -16.97314453 Z " fill="#030101" transform="translate(409.066162109375,153.97314453125)"/>
<path d="M0 0 C0.84437622 -0.01253311 1.68875244 -0.02506622 2.55871582 -0.03797913 C3.45779663 -0.02472092 4.35687744 -0.01146271 5.28320312 0.00219727 C6.21869995 -0.00021469 7.15419678 -0.00262665 8.11804199 -0.00511169 C10.09159595 -0.00413426 12.06517767 0.00923462 14.03857422 0.03417969 C17.054661 0.06849212 20.06781724 0.05483256 23.08398438 0.03540039 C25.00456973 0.0422991 26.92514754 0.05197171 28.84570312 0.06469727 C30.19432434 0.05725746 30.19432434 0.05725746 31.57019043 0.04966736 C35.70920657 0.12729489 38.00490626 0.29152605 41.609375 2.47900391 C45.04829453 6.26447789 44.68822729 9.71858805 44.68470764 14.63554382 C44.68556207 15.35272876 44.68641649 16.0699137 44.68729681 16.80883151 C44.68894718 19.21795716 44.68343745 21.62701356 44.67797852 24.03613281 C44.67769652 25.76069131 44.67785461 27.48524992 44.67842102 29.20980835 C44.67870852 33.8975082 44.67281939 38.58518258 44.66584706 43.2728765 C44.6596057 48.16961269 44.6590091 53.06634943 44.65782166 57.96308899 C44.65471066 67.23843656 44.64650037 76.51377238 44.63647217 85.78911477 C44.62530386 96.34762757 44.61979877 106.90614091 44.61477673 117.46465814 C44.60431758 139.18681317 44.5867226 160.9089576 44.56445312 182.63110352 C46.46792511 182.61777985 46.46792511 182.61777985 48.40985107 182.60418701 C60.35806522 182.52316494 72.30622377 182.46316866 84.25465012 182.42385483 C90.39774763 182.40296383 96.5406237 182.37461806 102.68359375 182.3293457 C108.60987785 182.28594268 114.53594871 182.26197781 120.46237946 182.25159454 C122.72547005 182.24419326 124.98854874 182.22974062 127.25154877 182.20818329 C130.41698089 182.17922367 133.58152743 182.17514448 136.74707031 182.17700195 C138.15616165 182.1554303 138.15616165 182.1554303 139.59371948 182.13342285 C145.88944065 182.17350195 145.88944065 182.17350195 149.14668274 184.38163757 C150.71815408 186.87496886 151.0655262 188.15397121 151.06616211 191.07666016 C151.07554306 191.94758804 151.08492401 192.81851593 151.09458923 193.71583557 C151.07773827 195.11442055 151.07773827 195.11442055 151.06054688 196.54125977 C151.06200211 197.50511093 151.06345734 198.4689621 151.06495667 199.46202087 C151.06329841 201.49700955 151.05174537 203.53201086 151.03100586 205.56689453 C151.00202524 208.68584269 151.01040365 211.80309399 151.0234375 214.92211914 C151.01720084 216.89934096 151.00881047 218.87655741 150.99804688 220.85375977 C151.00098251 221.78817398 151.00391815 222.7225882 151.00694275 223.68531799 C150.99425858 224.55309372 150.9815744 225.42086945 150.96850586 226.31494141 C150.96310287 227.07787003 150.95769989 227.84079865 150.95213318 228.62684631 C150.45212033 231.21184997 149.65705008 232.06265088 147.56445312 233.63110352 C144.23825069 234.72670264 141.11123797 234.76173182 137.6257782 234.77154541 C136.41034332 234.77725555 135.19490845 234.7829657 133.94264221 234.78884888 C132.59872447 234.79009414 131.25480661 234.79121925 129.91088867 234.79223633 C128.49310172 234.79686655 127.07531601 234.80189149 125.65753174 234.80728149 C121.80824827 234.82038751 117.95898223 234.8268469 114.10967994 234.83129215 C111.70349186 234.83422569 109.29730851 234.83833102 106.89112282 234.84279633 C99.35888748 234.85646631 91.82666301 234.8661355 84.29441613 234.86999822 C75.60656988 234.87447836 66.91888102 234.89202624 58.23108262 234.92099881 C51.51077506 234.94263036 44.79051174 234.95270328 38.07016975 234.95403934 C34.05862201 234.95508628 30.0472223 234.96097047 26.03571129 234.97885895 C22.26080987 234.99536528 18.48616738 234.99748284 14.71124268 234.98871994 C13.32898578 234.98795094 11.94671481 234.99227422 10.56449318 235.00217819 C-2.85437277 235.09265771 -2.85437277 235.09265771 -8.43554688 231.63110352 C-9.74734171 227.695719 -9.58705994 223.94090408 -9.58944702 219.83804321 C-9.59382928 218.92837559 -9.59821153 218.01870797 -9.60272658 217.08147466 C-9.61612544 214.02070435 -9.62229583 210.95996283 -9.62841797 207.89916992 C-9.63631791 205.70982228 -9.64458679 203.52047594 -9.65319824 201.33113098 C-9.67942495 194.13165533 -9.69472384 186.93217382 -9.70898438 179.73266602 C-9.71434328 177.25663626 -9.71972078 174.78060655 -9.72511673 172.30457687 C-9.74674399 162.00872362 -9.76548266 151.71287195 -9.77673912 141.41700172 C-9.77967847 138.74585593 -9.78263048 136.07471016 -9.78564453 133.40356445 C-9.78639058 132.73966542 -9.78713663 132.07576638 -9.78790529 131.39174919 C-9.80056495 120.63170372 -9.83379755 109.87182327 -9.87544636 99.11185499 C-9.91785214 88.06586176 -9.94102464 77.01995744 -9.94665968 65.97388399 C-9.95031956 59.77138639 -9.96240906 53.56916872 -9.99476242 47.36674881 C-10.02475129 41.53413039 -10.03118756 35.70196266 -10.01937866 29.86928368 C-10.01915718 27.72666307 -10.0275238 25.58402209 -10.0450325 23.44147301 C-10.06761185 20.5198113 -10.05948127 17.59979949 -10.04354858 14.6781311 C-10.05743067 13.8270602 -10.07131276 12.9759893 -10.08561552 12.09912837 C-10.02708417 7.75353161 -9.8307271 6.12928627 -7.03505135 2.60492611 C-4.35220163 0.56781887 -3.29557079 0.0042965 0 0 Z M-5.43554688 3.63110352 C-5.43554688 77.88110352 -5.43554688 152.13110352 -5.43554688 228.63110352 C19.29382813 228.65172852 44.02320313 228.67235352 69.50195312 228.69360352 C77.32390381 228.70270752 85.14585449 228.71181152 93.20483398 228.72119141 C100.18762948 228.72453486 100.18762948 228.72453486 107.17042542 228.72654724 C110.2920553 228.72748272 113.41366834 228.73124533 116.53529358 228.73667908 C120.50957535 228.74350606 124.48383242 228.74560066 128.45811951 228.74417579 C129.92139388 228.74447401 131.38466906 228.74647583 132.84793842 228.75031865 C134.81515898 228.75524744 136.78239297 228.75350724 138.74961853 228.75135803 C139.85484832 228.75227983 140.96007811 228.75320162 142.09879971 228.75415134 C144.50892077 228.91029713 144.50892077 228.91029713 145.56445312 227.63110352 C145.66562233 224.54028886 145.7041387 221.47227796 145.69726562 218.38110352 C145.69822235 217.45265625 145.69917908 216.52420898 145.70016479 215.56762695 C145.70084668 213.60050387 145.69899184 211.63337855 145.69482422 209.66625977 C145.68947608 206.64407325 145.69476895 203.62203537 145.70117188 200.59985352 C145.70051109 198.69360319 145.69922994 196.78735295 145.69726562 194.88110352 C145.70030197 193.51550293 145.70030197 193.51550293 145.70339966 192.12231445 C146.10336645 188.05446674 146.10336645 188.05446674 144.56445312 184.63110352 C143.18569287 184.53571162 141.80208396 184.50921729 140.42002869 184.510849 C139.52861899 184.5094715 138.6372093 184.50809401 137.71878719 184.50667477 C136.23461473 184.51207193 136.23461473 184.51207193 134.72045898 184.51757812 C133.66964677 184.51745759 132.61883455 184.51733706 131.53617954 184.51721287 C128.1171975 184.51796234 124.69826923 184.52559215 121.27929688 184.53344727 C119.17549669 184.53491658 117.07169613 184.53593735 114.96789551 184.53649902 C107.14590916 184.54175316 99.32393062 184.55571422 91.50195312 184.56860352 C74.03257812 184.58922852 56.56320313 184.60985352 38.56445312 184.63110352 C38.56445312 124.90110352 38.56445312 65.17110352 38.56445312 3.63110352 C24.04445312 3.63110352 9.52445312 3.63110352 -5.43554688 3.63110352 Z " fill="#030000" transform="translate(73.435546875,133.368896484375)"/>
<path d="M0 0 C9.78631125 9.51446927 16.03269382 22.01119214 19.25 35.1875 C19.42974365 35.92178223 19.6094873 36.65606445 19.79467773 37.41259766 C21.2774379 44.08889258 21.56150367 50.48822146 21.5 57.3125 C21.48876099 58.96064697 21.48876099 58.96064697 21.47729492 60.64208984 C21.19699654 81.97921721 17.66035569 102.4411075 2.5 118.5625 C-9.34233139 129.7240317 -22.7092321 132.73203735 -38.5925293 132.63354492 C-40.68182772 132.62502314 -42.76839062 132.65392089 -44.85742188 132.68554688 C-59.42115911 132.76120349 -72.8686142 128.44002043 -83.70703125 118.4453125 C-100.70084308 99.66438852 -104.00743678 74.59979791 -102.96582031 50.23046875 C-101.6386915 31.51855296 -95.29796249 14.15300278 -81.625 0.9375 C-58.70124583 -18.2379639 -23.87764576 -15.73753925 0 0 Z M-68.75 0.1875 C-69.575 0.59742188 -70.4 1.00734375 -71.25 1.4296875 C-84.80508358 8.74447345 -90.65710272 21.87357986 -94.953125 36.01171875 C-100.48913042 58.0743286 -98.60327799 86.77367353 -87.33984375 106.6796875 C-80.33680764 117.7724967 -70.95949278 125.07750629 -58.26953125 128.64453125 C-40.90398315 132.38687417 -22.21570521 131.25955475 -6.71875 122.17578125 C6.03879298 113.6315847 13.66319551 99.13439 16.62890625 84.18359375 C20.14302216 60.85086105 18.99026777 32.95446057 4.88671875 13.2734375 C-2.9917971 3.2325605 -13.69930847 -3.86974011 -26.57421875 -5.60546875 C-41.22161012 -6.56034174 -55.45930879 -6.78088324 -68.75 0.1875 Z " fill="#040101" transform="translate(377.75,188.8125)"/>
</svg>
